Coordinates
version=1
nRows=14
nColumns=36
inDegrees=yes

Units are S.I. units (second, meters, Newtons, ...)
If the header above contains a line with 'inDegrees', this indicates whether rotational values are in degrees (yes) or radians (no).

endheader
time	pelvis_tilt	pelvis_list	pelvis_rotation	pelvis_tx	pelvis_ty	pelvis_tz	hip_flexion_r	hip_adduction_r	hip_rotation_r	knee_angle_r	knee_angle_r_beta	ankle_angle_r	subtalar_angle_r	mtp_angle_r	hip_flexion_l	hip_adduction_l	hip_rotation_l	knee_angle_l	knee_angle_l_beta	ankle_angle_l	subtalar_angle_l	mtp_angle_l	lumbar_extension	lumbar_bending	lumbar_rotation	arm_flex_r	arm_add_r	arm_rot_r	elbow_flex_r	pro_sup_r	arm_flex_l	arm_add_l	arm_rot_l	elbow_flex_l	pro_sup_l
      6.45000000	    -19.09136973	     -2.41763593	      2.85824125	     -0.13855274	      0.49414682	      0.07627140	    104.97434247	    -25.88641985	     10.92414596	    128.67861438	      2.24586550	     43.49868763	     -1.58350427	     -7.49999987	    106.58627846	    -22.24350971	     16.23582434	    128.14439374	      2.23654159	     42.49555682	      6.41192483	     -7.49999987	    -28.94099797	      3.72705582	      3.61520750	     73.29146201	      1.66203782	     85.19765763	    117.07517426	     90.94454007	     83.98483921	      3.36673643	     88.57045591	    116.73439919	     77.40010155
      6.46666670	    -18.89364630	     -2.52710121	      3.10745087	     -0.13723171	      0.50213210	      0.07568371	    103.10467439	    -26.24317744	      9.45153902	    126.85295909	      2.21400180	     43.08096436	     -2.06691168	     -7.49999987	    104.88883858	    -21.86810477	     15.23011356	    126.29452107	      2.20425522	     41.93765650	      5.67848124	     -7.49999987	    -29.17184046	      3.85181409	      3.50637030	     73.46098100	      1.60740455	     85.06390390	    117.07432594	     89.50868375	     84.10475162	      3.33817490	     88.68323760	    116.98126038	     76.48128860
      6.48333330	    -18.68278645	     -2.56044503	      3.28396516	     -0.13380296	      0.51483755	      0.07395256	    100.90478101	    -26.46453409	      8.11199031	    124.87928531	      2.17955470	     42.92973923	     -2.56112261	     -7.49999987	    103.17420920	    -21.51669264	     13.94438233	    124.77343447	      2.17770725	     41.48817029	      4.74240130	     -7.49999987	    -29.16167559	      3.92871358	      3.38840394	     73.43504088	      1.57387485	     85.09575872	    117.15623282	     89.75820461	     83.99222992	      3.31188358	     88.64725923	    117.00585528	     76.67821048
      6.50000000	    -18.32625197	     -2.48568644	      3.14039583	     -0.14438456	      0.52807902	      0.07254952	     98.76516687	    -26.10519342	      6.87414889	    122.64626956	      2.14058122	     43.01856521	     -2.46677065	     -7.49999987	    101.31891073	    -21.41069892	     12.54206661	    122.89163136	      2.14486359	     41.07825328	      4.08000523	     -7.49999987	    -29.47346656	      3.69949589	      3.41697337	     74.18429004	      1.51082847	     84.46382209	    117.53305844	     90.13847291	     84.72939236	      3.39571006	     88.34719157	    117.22726833	     76.99547106
      6.51666670	    -18.41106088	     -2.47153989	      2.90902966	     -0.15177729	      0.54076269	      0.07272217	     97.57523643	    -25.62326080	      5.60756823	    120.47066474	      2.10260975	     42.49966069	     -2.88402969	     -7.49999987	    100.10490465	    -21.30241120	     11.39051498	    120.73838101	      2.10728228	     40.41346957	      3.24038506	     -7.49999987	    -29.31364381	      3.55462885	      3.36641366	     74.92973259	      1.53391009	     83.21730091	    117.71614759	     90.17514050	     85.45925553	      3.24431040	     87.75487985	    117.42406834	     77.04017388
      6.53333330	    -18.02505060	     -2.48376560	      3.20795726	     -0.15181904	      0.55938439	      0.07214610	     95.11693393	    -25.32963638	      4.37845830	    117.83137749	      2.05654550	     41.98086796	     -3.72078741	     -7.49999987	     97.75462186	    -20.99460195	     10.01630000	    118.11636470	      2.06151946	     39.79753251	      2.68228814	     -7.49999987	    -29.68054848	      3.52014494	      3.11941922	     75.77319241	      1.52189710	     82.04892927	    117.83511836	     90.25221925	     86.38674543	      3.50003976	     87.51040226	    117.64245631	     77.08532104
      6.55000000	    -18.49540380	     -2.50874945	      3.03551162	     -0.15041359	      0.57704899	      0.07150541	     93.07700298	    -24.75322980	      3.09002162	    114.92201903	      2.00576762	     41.66683043	     -3.53498051	     -7.49999987	     95.74266152	    -21.08846629	      8.69320862	    115.34533980	      2.01315596	     39.16049874	      2.40464491	     -7.49999987	    -28.60815422	      3.44767242	      3.08238619	     75.52577487	      1.47656886	     81.75646402	    117.85503185	     90.26232519	     86.00133155	      3.28943075	     87.56350839	    117.74495714	     77.07500320
      6.56666670	    -17.97266778	     -2.41212134	      2.73774871	     -0.15485084	      0.59411480	      0.07211509	     90.36196712	    -24.04304580	      2.02107568	    112.08440752	      1.95624195	     41.28108911	     -4.00740104	     -7.49999987	     93.13564435	    -21.06091945	      7.57795337	    112.87550938	      1.97004928	     38.09466429	      1.19460725	     -7.49999987	    -28.82869126	      3.30140569	      3.33558013	     75.97122862	      1.77894896	     80.68145857	    117.53276876	     90.27052582	     86.68128315	      3.21672397	     86.75774460	    117.97707261	     77.00832907
      6.58333330	    -18.05941006	     -2.22714434	      2.50878463	     -0.15829768	      0.61379501	      0.06940597	     88.27060673	    -23.43211034	      1.06350530	    108.87745156	      1.90027001	     40.23972531	     -4.65674575	     -7.49999987	     90.94698646	    -20.76134012	      6.22113082	    110.02954291	      1.92037780	     37.10524813	      0.55974646	     -7.49999987	    -28.10514556	      3.09157220	      3.43346389	     75.59345873	      1.92015461	     80.56781877	    117.64492774	     90.27166452	     86.60004977	      3.11266022	     86.54731937	    117.97450955	     76.95872436
      6.60000000	    -17.45350610	     -1.99797801	      2.54185937	     -0.15749935	      0.63553141	      0.07179353	     85.56234698	    -23.05685793	     -0.07416865	    105.52409758	      1.84174294	     38.72535614	     -6.23421699	     -7.49999987	     87.70013758	    -20.39942982	      4.76320981	    106.83039754	      1.86454218	     35.29157156	     -1.54417644	     -7.49999987	    -28.24626796	      2.81363846	      3.61966857	     75.60345646	      2.29381222	     80.54179678	    117.70340599	     90.26658764	     86.84014976	      3.22462698	     85.90087712	    117.72716651	     76.83449814
      6.61666670	    -17.15158592	     -1.88013713	      2.89755286	     -0.15693985	      0.65229778	      0.07000767	     82.91815934	    -22.96732701	     -1.13739432	    102.40424864	      1.78729131	     37.59884592	     -7.34520958	     -7.49999987	     85.06510920	    -19.80842465	      3.54289758	    103.82736586	      1.81212939	     33.95028615	     -2.97140958	     -7.49999987	    -27.69949979	      2.79619398	      3.75063834	     75.31258750	      2.37554889	     80.48874175	    117.96250721	     90.19113074	     86.70151614	      3.58943978	     85.58925999	    117.67018337	     76.68829647
      6.63333330	    -16.86112874	     -1.88103923	      2.60381598	     -0.14463494	      0.67460259	      0.07260752	     79.71349333	    -22.30780289	     -2.24065829	     99.13169171	      1.73017441	     36.77159532	     -7.68679029	     -7.49999987	     81.93407067	    -20.12753676	      2.41302955	    100.61327922	      1.75603299	     32.68867677	     -3.84074242	     -7.49999987	    -26.64544696	      2.58667374	      4.22884698	     73.88273343	      2.49153324	     80.57711664	    118.08692768	     88.86260532	     85.38582845	      3.74285788	     85.72033430	    117.86555920	     75.89376540
      6.65000000	    -16.65971992	     -1.72223474	      2.49991271	     -0.15344916	      0.70054720	      0.07241412	     76.74501108	    -21.74064271	     -3.50685961	     95.00067893	      1.65807464	     35.28296497	     -8.38835998	     -7.49999987	     78.76669318	    -19.93874060	      0.93306350	     96.62875001	      1.68648984	     31.34626051	     -4.35061087	     -7.49999987	    -25.95686689	      2.32825216	      4.51945906	     73.39593052	      2.69407340	     80.56462556	    118.21462720	     88.96509828	     84.92461138	      4.07689730	     85.81278737	    118.08651568	     75.79000188
      6.66666670	    -16.39728777	     -1.68481689	      2.24286001	     -0.15422112	      0.72315634	      0.07362001	     73.71622964	    -21.00388428	     -4.83864317	     90.80089383	      1.58477456	     33.58944618	     -8.66524776	     -7.49999987	     75.56018072	    -19.86573909	     -0.47105078	     92.26975917	      1.61041110	     29.61703897	     -5.14361517	     -7.49999987	    -25.22395407	      2.10433300	      4.70309101	     72.72651415	      3.03272969	     80.49464188	    118.43906222	     89.03143865	     84.54209824	      4.03273863	     85.81493737	    118.37608479	     75.63369660
